<?xml version="1.0" encoding="UTF-8"?>
<!DOCTYPE svg PUBLIC "-//W3C//DTD SVG 1.1//EN" "http://www.w3.org/Graphics/SVG/1.1/DTD/svg11.dtd">
<!-- Creator: CorelDRAW -->
<svg xmlns="http://www.w3.org/2000/svg" xml:space="preserve" width="1.99999in" height="1.99999in" version="1.1" style="shape-rendering:geometricPrecision; text-rendering:geometricPrecision; image-rendering:optimizeQuality; fill-rule:evenodd; clip-rule:evenodd"
viewBox="0 0 2000 2000"
 xmlns:xlink="http://www.w3.org/1999/xlink">
 <defs>
  <style type="text/css">
   <![CDATA[
    .fil2 {fill:#360B4B}
    .fil0 {fill:#7ED63F}
    .fil1 {fill:#FE5022}
   ]]>
  </style>
 </defs>
 <g id="Layer_x0020_1">
  <metadata id="CorelCorpID_0Corel-Layer"/>
  <path class="fil0" d="M1565 723c-139,0 -259,69 -248,207 203,-132 371,-114 379,-113 29,3 24,49 -6,45 -2,0 -169,-17 -363,116 28,76 110,80 166,60 100,-37 236,-147 336,-219 -66,-60 -163,-96 -264,-96z"/>
  <path class="fil0" d="M1210 536c51,-39 115,-126 162,-186 -111,-44 -284,33 -269,144 38,-41 81,-75 125,-99 26,-14 48,26 22,40 -33,18 -80,50 -128,107 22,26 62,13 88,-6z"/>
  <path class="fil1" d="M1051 1308c13,-256 -122,-569 -238,-786 -36,-67 -78,-118 -119,-178 36,176 111,305 176,462 83,197 144,421 72,787 -10,55 -36,156 -56,223l61 0c20,-58 93,-281 104,-508z"/>
  <path class="fil0" d="M642 579c5,-114 -176,-163 -282,-102 53,52 125,129 179,159 29,16 69,21 89,-8 -53,-49 -103,-74 -137,-86 -28,-11 -12,-53 16,-43 46,18 92,45 135,80z"/>
  <path class="fil0" d="M728 1272c48,-223 -298,-335 -490,-215 89,91 209,229 303,285 56,34 134,43 171,-23 -176,-173 -343,-191 -345,-191 -30,-3 -26,-48 4,-45 8,1 175,17 357,189z"/>
  <path class="fil2" d="M1033 501c-65,-179 204,-303 353,-211 12,7 15,23 6,34 -57,68 -123,166 -188,215 -45,33 -107,44 -147,3 -56,59 -93,126 -109,199 51,125 93,259 109,387 46,-92 120,-159 184,-203 -51,-311 409,-367 606,-151 10,10 8,26 -4,34 -112,77 -250,196 -368,239 -84,31 -181,10 -220,-76 -77,56 -165,145 -191,274 0,11 0,22 0,32 -12,220 -76,429 -102,506l443 0c30,0 30,45 0,45l-1059 0c-30,0 -30,-45 0,-45l459 0c25,-82 44,-157 58,-227 -19,-90 -69,-171 -150,-239 -52,80 -153,77 -229,31 -110,-66 -231,-213 -331,-312 -9,-9 -8,-26 3,-34 223,-172 668,-24 576,272 67,54 117,118 147,187 44,-302 -12,-499 -85,-673 -32,-72 -86,-128 -162,-168 -34,50 -98,50 -149,22 -69,-38 -145,-125 -208,-184 -39,-37 76,-86 159,-86 126,0 244,80 215,205 26,14 50,29 72,46 -56,-125 -109,-258 -123,-427 -2,-25 34,-34 44,-10 36,90 122,178 178,281 33,62 68,133 100,207 23,-63 61,-120 113,-173zm-181 1282l62 0c20,-59 93,-281 104,-508 13,-256 -122,-569 -238,-787 -36,-67 -79,-118 -119,-177 36,176 111,305 176,461 82,197 144,422 72,788 -10,55 -36,156 -57,223zm-647 -760c89,92 208,229 302,286 57,34 135,42 171,-23 -175,-173 -343,-191 -344,-191 -30,-3 -26,-48 4,-45 7,0 175,17 357,189 47,-224 -298,-335 -490,-216zm122 -579c53,52 125,128 179,159 28,16 68,21 88,-9 -53,-48 -103,-73 -137,-86 -28,-10 -12,-53 16,-42 47,17 93,45 135,80 6,-114 -175,-164 -281,-102zm1204 246c-138,0 -259,69 -247,207 203,-133 371,-114 378,-113 30,3 24,48 -5,45 -3,-1 -169,-18 -364,116 29,76 111,80 167,59 100,-36 235,-146 335,-218 -66,-61 -162,-96 -264,-96zm-461 -229c38,-41 81,-75 125,-99 26,-15 48,25 22,40 -33,17 -81,50 -129,106 23,26 63,14 88,-6 52,-38 115,-125 163,-185 -112,-44 -284,33 -269,144z"/>
 </g>
</svg>
