<?xml version="1.0" encoding="UTF-8"?>
<!DOCTYPE svg PUBLIC "-//W3C//DTD SVG 1.1//EN" "http://www.w3.org/Graphics/SVG/1.1/DTD/svg11.dtd">
<!-- Creator: CorelDRAW -->
<svg xmlns="http://www.w3.org/2000/svg" xml:space="preserve" width="1.99999in" height="1.99999in" version="1.1" style="shape-rendering:geometricPrecision; text-rendering:geometricPrecision; image-rendering:optimizeQuality; fill-rule:evenodd; clip-rule:evenodd"
viewBox="0 0 2000 2000"
 xmlns:xlink="http://www.w3.org/1999/xlink">
 <defs>
  <style type="text/css">
   <![CDATA[
    .fil2 {fill:#360B4B}
    .fil1 {fill:#7ED63F}
    .fil0 {fill:#FE5022}
   ]]>
  </style>
 </defs>
 <g id="Layer_x0020_1">
  <metadata id="CorelCorpID_0Corel-Layer"/>
  <polygon class="fil0" points="1366,1484 1366,1793 1432,1793 1432,1484 "/>
  <path class="fil1" d="M1282 1438l95 0 0 -77 -148 -148c-21,-21 11,-53 32,-32l116 116 0 -86 -148 -149c-21,-20 11,-53 32,-32l116 116 0 -86 -148 -148c-21,-21 11,-53 32,-32l116 116 0 -86 -148 -149c-21,-20 11,-53 32,-32l116 116 0 -86 -148 -148c-21,-21 11,-53 32,-32l116 116 0 -142c0,-29 46,-29 46,0l0 142 116 -116c21,-21 53,11 32,32l-148 148 0 87 116 -117c21,-21 53,12 32,32l-148 149 0 86 116 -116c21,-21 53,11 32,32l-148 148 0 86 116 -116c21,-21 53,12 32,32l-148 149 0 86 116 -116c21,-21 53,11 32,32l-148 148 0 77 93 0c37,0 64,-33 58,-69 -3,-15 11,-29 26,-26 51,9 87,-50 57,-92 -9,-12 -3,-31 12,-35 46,-12 58,-72 22,-101 -13,-10 -11,-30 3,-38 38,-20 41,-74 6,-99 -12,-8 -13,-26 -2,-35 34,-31 20,-90 -26,-101 -19,-4 -24,-31 -7,-41 39,-25 35,-85 -8,-103 -13,-6 -18,-23 -9,-35 22,-29 10,-73 -25,-88 -26,-11 -5,-38 -5,-57 0,-27 -19,-50 -45,-56 -28,-7 -12,-33 -12,-50 0,-39 -38,-67 -75,-56 -16,4 -29,-9 -29,-24 1,-77 -118,-76 -116,2 0,32 -38,19 -46,19 -40,0 -68,42 -54,79 4,12 -3,27 -16,30 -36,8 -55,49 -39,82 6,12 0,26 -12,31 -34,15 -46,59 -24,88 9,12 4,29 -9,35 -43,18 -47,78 -8,103 16,10 12,37 -7,41 -46,11 -60,70 -26,101 11,9 10,27 -2,35 -35,25 -32,79 6,99 14,8 16,28 3,38 -36,29 -24,89 22,101 15,4 21,23 12,35 -30,42 6,101 57,92 15,-3 29,11 26,26 -6,36 22,69 58,69z"/>
  <path class="fil1" d="M621 1437c202,-22 236,-245 234,-394 -4,-328 -168,-694 -254,-684l-8 0c-85,0 -247,352 -251,684 -2,148 32,373 234,394l0 -77 -113 -149c-18,-23 18,-51 36,-28l77 102 0 -76 -113 -148c-18,-24 18,-51 36,-28l77 101 0 -75 -113 -148c-18,-24 18,-51 36,-28l77 101 0 -75 -113 -149c-18,-23 18,-51 36,-27l77 101 0 -92 -88 -115c-18,-23 19,-51 36,-28l52 68 0 -112c0,-30 45,-30 45,0l0 112 52 -68c17,-23 54,5 36,28l-88 115 0 92 77 -101c18,-24 54,4 36,27l-113 149 0 75 77 -101c18,-23 54,4 36,28l-113 148 0 75 77 -101c18,-23 54,4 36,28l-113 148 0 76 77 -102c18,-23 54,5 36,28l-113 149 0 77z"/>
  <polygon class="fil0" points="632,1793 632,1481 598,1484 565,1481 565,1793 "/>
  <path class="fil2" d="M1344 1328l-148 -148c-21,-21 11,-53 32,-33l116 117 0 -87 -148 -148c-21,-21 11,-53 32,-32l116 116 0 -86 -148 -148c-21,-21 11,-53 32,-33l116 117 0 -87 -148 -148c-21,-21 11,-53 32,-32l116 116 0 -86 -148 -148c-21,-21 11,-53 32,-33l116 117 0 -142c0,-29 46,-29 46,0l0 142 116 -117c21,-20 53,12 32,33l-148 148 0 86 116 -116c21,-21 53,11 32,32l-148 148 0 87 116 -117c21,-20 53,12 32,33l-148 148 0 86 116 -116c21,-21 53,11 32,32l-148 148 0 87 116 -117c21,-20 53,12 32,33l-148 148 0 77 93 0c36,0 64,-34 57,-69 -3,-15 11,-29 27,-26 51,9 87,-51 57,-92 -10,-13 -3,-31 12,-35 45,-13 57,-73 21,-102 -12,-10 -10,-30 4,-37 37,-21 40,-75 6,-99 -12,-8 -13,-26 -2,-36 34,-30 20,-90 -26,-100 -19,-4 -24,-31 -7,-42 39,-24 35,-84 -8,-102 -13,-6 -18,-23 -9,-35 22,-30 10,-74 -25,-88 -26,-11 -6,-38 -6,-57 0,-27 -18,-50 -44,-56 -28,-7 -12,-33 -12,-51 0,-38 -39,-66 -75,-56 -16,5 -29,-8 -29,-23 0,-77 -118,-77 -117,1 1,33 -38,20 -45,20 -40,0 -68,41 -55,79 5,12 -3,26 -16,30 -35,8 -54,49 -38,82 5,11 0,26 -12,31 -34,14 -46,58 -24,88 8,12 4,29 -10,35 -42,18 -47,78 -8,103 17,10 13,37 -7,41 -45,10 -60,70 -25,100 11,10 10,28 -2,36 -35,24 -32,78 5,99 14,7 16,27 4,37 -36,29 -24,89 21,102 15,4 22,22 13,35 -31,41 5,101 57,92 15,-3 29,11 26,26 -6,35 21,69 57,69l96 0 0 -77zm487 477l-1662 0c-29,0 -29,-46 0,-46l317 0 0 -320c-147,-40 -225,-189 -223,-430 4,-308 158,-739 302,-728 2,-1 4,-1 6,-1 142,0 292,424 296,729 3,241 -76,390 -223,430l0 320 643 0 0 -309 -39 0c-54,0 -98,-41 -103,-94 -67,-7 -111,-78 -87,-140 -51,-31 -66,-101 -32,-149 -39,-38 -41,-102 -6,-142 -32,-47 -20,-114 27,-145 -33,-45 -24,-111 21,-145 -19,-44 -3,-98 36,-125 -11,-47 12,-97 55,-118 -8,-63 42,-119 106,-117 25,-106 176,-105 201,0 64,-3 115,55 106,117 43,21 67,71 55,118 39,27 55,81 37,125 44,34 54,100 20,145 47,31 60,98 27,145 36,40 33,104 -6,142 35,48 19,118 -31,149 23,62 -21,133 -88,140 -4,53 -49,94 -103,94l-39 0 0 309 387 0c29,0 29,46 0,46zm-1266 -355l-33 -2 0 311 66 0 0 -311 -33 2zm-5 -1124c-85,0 -247,351 -251,684 -2,148 31,372 233,393l0 -77 -113 -148c-18,-24 19,-51 36,-28l77 101 0 -75 -113 -149c-18,-23 19,-50 36,-27l77 101 0 -75 -113 -149c-18,-23 19,-51 36,-27l77 101 0 -75 -113 -149c-18,-23 19,-51 36,-28l77 102 0 -92 -87 -115c-18,-24 18,-51 36,-28l51 68 0 -113c0,-29 46,-29 46,0l0 112 51 -67c18,-23 54,4 36,28l-87 115 0 92 77 -102c18,-23 54,5 36,28l-113 149 0 75 77 -101c18,-24 54,4 36,27l-113 149 0 75 77 -101c18,-23 54,4 36,27l-113 149 0 75 77 -101c18,-23 54,4 36,28l-113 148 0 77c202,-21 235,-245 234,-393 -4,-328 -168,-694 -254,-684l-8 0zm772 1433l67 0 0 -309 -67 0 0 309z"/>
 </g>
</svg>
