<?xml version="1.0" encoding="UTF-8"?>
<!DOCTYPE svg PUBLIC "-//W3C//DTD SVG 1.1//EN" "http://www.w3.org/Graphics/SVG/1.1/DTD/svg11.dtd">
<!-- Creator: CorelDRAW -->
<svg xmlns="http://www.w3.org/2000/svg" xml:space="preserve" width="1.99999in" height="1.99999in" version="1.1" style="shape-rendering:geometricPrecision; text-rendering:geometricPrecision; image-rendering:optimizeQuality; fill-rule:evenodd; clip-rule:evenodd"
viewBox="0 0 2000 2000"
 xmlns:xlink="http://www.w3.org/1999/xlink">
 <defs>
  <style type="text/css">
   <![CDATA[
    .fil2 {fill:#360B4B}
    .fil0 {fill:#7ED63F}
    .fil1 {fill:#FE5022}
   ]]>
  </style>
 </defs>
 <g id="Layer_x0020_1">
  <metadata id="CorelCorpID_0Corel-Layer"/>
  <path class="fil0" d="M1642 925c-37,-64 -116,-94 -186,-70 37,65 116,95 186,70z"/>
  <path class="fil0" d="M1417 812c30,-67 8,-149 -52,-192 -30,67 -8,149 52,192z"/>
  <path class="fil0" d="M1562 723c43,60 125,82 192,52 -42,-61 -125,-83 -192,-52z"/>
  <path class="fil0" d="M1663 613c73,13 147,-30 172,-99 -72,-12 -146,30 -172,99z"/>
  <path class="fil0" d="M1531 682c47,-57 47,-142 0,-199 -47,57 -47,142 0,199z"/>
  <path class="fil1" d="M1197 926c-74,7 -134,67 -141,141 74,-7 134,-67 141,-141z"/>
  <path class="fil1" d="M1010 1067c-7,-74 -67,-134 -141,-141 7,74 67,134 141,141z"/>
  <path class="fil1" d="M869 729c7,74 67,134 141,141 -7,-74 -67,-134 -141,-141z"/>
  <path class="fil1" d="M1197 729c-74,7 -134,67 -141,141 74,-7 134,-68 141,-141z"/>
  <path class="fil1" d="M1033 527c47,-57 47,-142 0,-199 -47,57 -47,142 0,199z"/>
  <path class="fil1" d="M1197 532c-74,7 -134,67 -141,140 74,-6 134,-67 141,-140z"/>
  <path class="fil1" d="M1010 672c-7,-73 -67,-133 -141,-140 7,73 67,134 141,140z"/>
  <path class="fil0" d="M611 855c-70,-24 -150,6 -186,70 70,25 149,-6 186,-70z"/>
  <path class="fil0" d="M701 620c-60,43 -82,125 -51,192 60,-43 82,-125 51,-192z"/>
  <path class="fil0" d="M536 682c47,-57 47,-142 0,-199 -47,57 -47,142 0,199z"/>
  <path class="fil0" d="M504 723c-67,-31 -149,-9 -192,52 67,30 150,8 192,-52z"/>
  <path class="fil0" d="M231 514c26,69 99,112 172,99 -25,-69 -99,-111 -172,-99z"/>
  <path class="fil2" d="M1359 817c-88,-61 -113,-184 -55,-274 7,-10 19,-13 30,-8 63,33 106,99 109,170 7,-8 15,-17 22,-24 -70,-82 -63,-208 17,-281 9,-8 22,-8 31,0 51,47 75,118 62,186 3,-2 5,-3 7,-4 14,-51 47,-95 94,-122 48,-28 108,-35 162,-17 11,3 17,15 15,26 -25,112 -138,181 -248,152 -3,2 -8,5 -13,9 75,-1 146,42 181,109 5,11 2,23 -8,30 -89,57 -208,35 -271,-50 -14,15 -28,32 -43,51 89,-10 176,42 209,125 16,40 -80,51 -102,51 -67,0 -131,-34 -167,-89 -92,147 -183,372 -210,705l85 -1c29,0 30,46 0,46l-88 1c-2,34 -4,70 -4,107l353 0c29,0 29,46 0,46l-1055 0c-29,0 -29,-46 0,-46l354 0c0,-42 -2,-83 -5,-122l0 -7c-4,-59 -11,-115 -18,-168l-91 1c-29,0 -29,-45 0,-45l83 -1c-40,-233 -112,-400 -185,-517 -56,85 -170,114 -260,68 -10,-5 -15,-18 -10,-29 33,-83 120,-135 209,-125 -15,-19 -29,-36 -43,-51 -62,85 -182,107 -271,50 -10,-7 -13,-19 -8,-30 35,-67 106,-110 181,-109 -5,-4 -10,-7 -13,-9 -110,29 -224,-40 -248,-152 -2,-11 4,-23 15,-26 54,-18 114,-11 163,17 46,27 79,71 93,122 2,1 4,2 7,4 -13,-68 11,-139 62,-186 9,-8 22,-8 31,0 80,73 87,199 17,281 7,7 15,16 22,24 3,-71 46,-137 109,-170 11,-5 23,-2 30,8 58,90 33,213 -55,274 80,123 159,302 201,555l135 -1 0 -292c-107,-7 -192,-102 -187,-210 1,-12 10,-21 22,-22 63,-3 125,24 165,74l0 -39c-107,-7 -192,-102 -187,-211 1,-11 10,-21 22,-21 63,-3 125,24 165,74l0 -39c-107,-7 -192,-103 -187,-211 1,-11 10,-21 22,-21 49,-3 96,13 134,43 -47,-81 -31,-188 39,-251 8,-8 22,-8 30,0 70,63 86,170 39,250 38,-30 85,-45 134,-42 12,0 21,10 22,21 5,108 -80,203 -187,211l0 38c40,-49 101,-76 165,-73 12,0 21,10 22,21 5,108 -80,204 -187,211l0 38c40,-49 101,-76 165,-73 12,1 21,10 22,22 5,108 -80,203 -187,210l0 292 135 -1c42,-252 122,-430 201,-553zm-231 898c1,-37 2,-72 4,-107l-109 1 0 106 105 0zm-151 0l0 -106 -109 1c2,34 3,69 4,105l105 0zm-128 -297c2,16 4,33 7,50l121 -1 0 -50 -128 1zm174 -2l0 51 122 -1c2,-18 4,-34 6,-51l-128 1zm-163 97c2,17 4,34 5,52l112 -1 0 -52 -117 1zm163 -1l0 51 112 -1c2,-17 3,-34 5,-51l-117 1zm-23 -1217c-47,57 -47,141 0,198 47,-57 47,-141 0,-198zm164 204c-74,6 -134,67 -141,140 74,-7 134,-67 141,-140zm-328 0c7,73 67,133 140,140 -7,-73 -67,-134 -140,-140zm328 197c-74,6 -134,67 -141,140 74,-6 134,-67 141,-140zm-328 0c7,73 67,134 140,140 -7,-73 -67,-134 -140,-140zm328 197c-74,7 -134,67 -141,140 74,-6 134,-67 141,-140zm-328 0c7,73 67,134 140,140 -7,-73 -67,-133 -140,-140zm-333 -245l0 0c47,-56 47,-141 0,-198 -47,57 -47,142 0,198zm-305 -167c25,69 99,111 172,99 -26,-69 -99,-112 -172,-99zm81 260c67,31 149,9 192,-51 -67,-31 -149,-9 -192,51zm113 151c69,24 149,-6 185,-70 -69,-24 -149,6 -185,70zm276 -305c-60,43 -82,125 -51,192 60,-43 82,-125 51,-192zm962 -7c73,12 146,-30 172,-99 -73,-13 -146,30 -172,99zm-101 110c43,60 125,82 192,51 -43,-60 -125,-82 -192,-51zm-32 -240c-47,57 -47,142 0,198 47,-56 47,-141 0,-198zm-74 372c36,64 116,94 185,70 -36,-64 -116,-94 -185,-70zm-91 -235c-31,67 -9,149 51,192 31,-67 9,-149 -51,-192z"/>
 </g>
</svg>
