<?xml version="1.0" encoding="UTF-8"?>
<!DOCTYPE svg PUBLIC "-//W3C//DTD SVG 1.1//EN" "http://www.w3.org/Graphics/SVG/1.1/DTD/svg11.dtd">
<!-- Creator: CorelDRAW -->
<svg xmlns="http://www.w3.org/2000/svg" xml:space="preserve" width="1.99999in" height="1.99999in" version="1.1" style="shape-rendering:geometricPrecision; text-rendering:geometricPrecision; image-rendering:optimizeQuality; fill-rule:evenodd; clip-rule:evenodd"
viewBox="0 0 2000 2000"
 xmlns:xlink="http://www.w3.org/1999/xlink">
 <defs>
  <style type="text/css">
   <![CDATA[
    .fil2 {fill:#360B4B}
    .fil1 {fill:#7ED63F}
    .fil0 {fill:#FE5022}
   ]]>
  </style>
 </defs>
 <g id="Layer_x0020_1">
  <metadata id="CorelCorpID_0Corel-Layer"/>
  <path class="fil0" d="M1032 853c121,-2 143,-169 27,-201 -73,-20 -145,50 -124,126 12,44 52,75 97,75z"/>
  <path class="fil1" d="M1162 1189c-3,0 -7,1 -11,2l0 0c-23,6 -37,30 -31,53 6,23 31,38 54,31 11,-3 21,-10 26,-20 6,-10 8,-22 5,-33 -5,-19 -23,-33 -43,-33z"/>
  <path class="fil1" d="M1355 1073c-17,18 -17,45 0,62 17,17 46,17 62,0 17,-17 17,-45 0,-62 -8,-8 -19,-13 -31,-13 -11,0 -22,5 -30,12l-1 1 0 0z"/>
  <path class="fil1" d="M1477 902c6,10 16,18 27,21 4,1 7,1 11,1 20,0 37,-13 43,-32 3,-12 1,-23 -5,-34 -6,-10 -15,-17 -26,-20 -4,-1 -8,-2 -12,-2 -19,0 -37,14 -42,33l0 0 0 0c-3,12 -2,23 4,33z"/>
  <path class="fil1" d="M1473 634c6,22 30,37 54,30 11,-3 20,-10 26,-20 6,-10 8,-22 5,-33 -6,-19 -23,-33 -43,-33 -4,0 -7,1 -11,2 -11,3 -21,10 -27,20 -6,10 -7,22 -4,33l0 1z"/>
  <path class="fil1" d="M1355 430c17,16 46,16 62,-1 17,-17 17,-44 0,-62 -8,-8 -19,-12 -31,-12 -12,0 -23,4 -31,12 -17,17 -17,45 0,62l0 0 0 1z"/>
  <path class="fil1" d="M712 429c8,-8 12,-19 12,-31 0,-11 -4,-22 -12,-31 -9,-8 -20,-12 -31,-12 -12,0 -23,4 -31,12 -18,18 -18,45 0,62 16,17 45,17 61,1l1 -1 0 0z"/>
  <path class="fil1" d="M589 600c-5,-10 -15,-17 -26,-20 -4,-1 -8,-2 -12,-2 -19,0 -37,14 -42,33 -3,11 -1,23 4,33 6,10 16,17 27,20 23,7 47,-7 54,-30l0 -1 0 0c3,-11 1,-23 -5,-33z"/>
  <path class="fil1" d="M594 868c-6,-18 -23,-32 -43,-32 -3,0 -7,1 -11,2 -11,3 -21,10 -27,20 -5,11 -7,22 -4,34 6,23 31,37 54,31 11,-3 21,-11 26,-21 6,-10 8,-21 5,-32l0 -1 0 0 0 -1z"/>
  <path class="fil1" d="M681 1060c-12,0 -23,5 -31,13 -18,17 -18,45 0,62 16,17 45,17 62,0 8,-8 12,-19 12,-31 0,-12 -4,-23 -12,-31 -9,-8 -20,-13 -31,-13z"/>
  <path class="fil1" d="M904 1189c-20,0 -37,14 -42,33 -3,11 -2,23 4,33 6,10 16,17 27,20 23,7 47,-8 54,-31 6,-23 -8,-47 -31,-53 -4,-1 -8,-2 -12,-2z"/>
  <path class="fil1" d="M862 281c6,23 30,37 54,31 23,-7 37,-31 31,-54 -6,-19 -23,-33 -43,-33 -4,0 -7,1 -11,2 -11,3 -21,10 -27,20 -6,11 -7,22 -4,34z"/>
  <path class="fil1" d="M1120 258c-6,23 8,47 31,54 4,1 8,1 11,1 20,0 38,-13 43,-32 3,-12 1,-23 -5,-34 -5,-10 -15,-17 -26,-20 -4,-1 -8,-2 -12,-2 -19,0 -37,14 -42,33z"/>
  <path class="fil2" d="M871 325c-105,0 -123,-149 -23,-175 99,-27 158,112 67,164l69 257 32 0 69 -257c-91,-52 -32,-191 67,-164 99,26 82,175 -23,175l-69 258c9,4 19,9 27,16l189 -189c-35,-59 8,-134 77,-134 77,0 119,96 63,152 -28,29 -74,34 -108,14l-189 189c6,8 12,17 16,27l258 -69c-1,-48 40,-90 89,-90 104,0 122,149 23,176 -39,10 -81,-8 -101,-42l-257 69c1,11 1,21 0,32l257 69c52,-91 191,-32 164,67 -20,77 -125,89 -163,22 -9,-14 -13,-30 -12,-45l-258 -69 -16 27 189 188c88,-51 182,66 108,141 -35,34 -92,34 -126,0 -30,-29 -34,-74 -14,-108l-189 -189c-8,6 -18,12 -27,16l69 257c105,0 122,150 23,176 -99,27 -158,-112 -67,-164l-62 -231 0 940c0,29 -46,29 -46,0l0 -941 -62 232c91,52 32,191 -67,164 -99,-26 -82,-176 23,-176l69 -257c-9,-4 -19,-10 -27,-16l-189 189c52,88 -66,182 -140,108 -74,-74 20,-192 108,-141l189 -188c-6,-8 -12,-18 -16,-27l-258 69c1,48 -40,89 -89,89 -104,0 -122,-149 -23,-175 39,-11 81,7 101,42l257 -69c-1,-11 -1,-22 0,-32l-257 -69c-52,91 -191,32 -164,-67 20,-77 125,-89 163,-22 8,14 13,29 12,45l258 69c4,-9 10,-19 16,-27l-189 -189c-88,52 -182,-66 -108,-140 74,-74 192,19 140,108l189 189c8,-7 17,-12 27,-16l-69 -258 0 0zm128 495c121,-3 143,-169 26,-201 -72,-20 -144,50 -124,125 12,45 53,76 98,76zm-321 -424l0 0 1 0c8,-9 12,-19 12,-31 0,-12 -4,-23 -13,-31 -8,-8 -19,-13 -31,-13 -11,0 -22,5 -31,13 -17,17 -17,45 0,62 17,17 45,17 62,0zm-118 205l0 -1 1 -1c2,-11 1,-22 -5,-32 -6,-10 -15,-18 -27,-21 -3,-1 -7,-1 -11,-1 -20,0 -37,13 -42,32 -3,12 -2,24 4,34 6,10 15,17 27,20 23,6 47,-8 53,-30zm1 235l-1 0 0 -1c-5,-19 -22,-32 -42,-32 -4,0 -7,1 -11,2 -12,3 -21,10 -27,20 -6,10 -7,22 -4,33 6,23 30,38 53,31 12,-3 21,-10 27,-20 6,-10 7,-22 5,-33l0 0zm86 191c-11,0 -22,4 -31,13 -17,17 -17,45 0,62 17,16 46,16 62,0 9,-9 13,-20 13,-31 0,-12 -4,-23 -13,-31 -8,-9 -19,-13 -31,-13zm224 129c-20,0 -37,13 -42,32 -4,12 -2,24 4,34 6,10 15,17 27,20 23,6 47,-8 53,-31 6,-23 -7,-47 -31,-54 -4,-1 -7,-1 -11,-1zm258 0c-4,0 -7,0 -11,1l0 0c-24,7 -37,31 -31,54 6,23 30,37 53,31 12,-3 21,-10 27,-20 6,-10 8,-22 4,-34 -5,-19 -22,-32 -42,-32zm193 -117l0 1 -1 0c-16,17 -16,45 1,62 16,16 45,16 62,0 17,-17 17,-45 0,-62 -9,-9 -20,-13 -31,-13 -12,0 -22,4 -31,12zm118 -204l0 1 -1 0c-2,11 -1,23 5,33 6,10 15,17 27,20 3,1 7,2 11,2 20,0 37,-13 42,-33 3,-11 2,-23 -4,-33 -6,-10 -15,-17 -27,-20 -4,-1 -7,-2 -11,-2 -20,0 -37,13 -42,32zm-1 -235l1 0c6,23 30,37 53,31 12,-3 21,-10 27,-20 6,-10 7,-22 4,-34 -5,-19 -22,-32 -42,-32 -4,0 -8,0 -11,1 -12,3 -21,11 -27,21 -6,10 -8,22 -5,33zm-118 -204l1 0 0 0c17,17 45,17 62,0 17,-17 17,-45 0,-62 -9,-8 -20,-13 -31,-13 -12,0 -23,5 -31,13 -17,17 -17,45 -1,62zm-192 -204c-20,0 -37,14 -42,33 -6,23 7,47 31,53 3,1 7,2 11,2 20,0 37,-14 42,-33 4,-11 2,-23 -4,-33 -6,-10 -15,-17 -27,-20 -3,-1 -7,-2 -11,-2zm-258 0c-4,0 -8,1 -11,2 -12,3 -21,10 -27,20 -6,10 -7,22 -4,33 6,23 30,38 53,31 24,-6 37,-30 31,-53 -5,-19 -22,-33 -42,-33z"/>
 </g>
</svg>
