<?xml version="1.0" encoding="UTF-8"?>
<!DOCTYPE svg PUBLIC "-//W3C//DTD SVG 1.1//EN" "http://www.w3.org/Graphics/SVG/1.1/DTD/svg11.dtd">
<!-- Creator: CorelDRAW -->
<svg xmlns="http://www.w3.org/2000/svg" xml:space="preserve" width="1.99999in" height="1.99999in" version="1.1" style="shape-rendering:geometricPrecision; text-rendering:geometricPrecision; image-rendering:optimizeQuality; fill-rule:evenodd; clip-rule:evenodd"
viewBox="0 0 2000 2000"
 xmlns:xlink="http://www.w3.org/1999/xlink">
 <defs>
  <style type="text/css">
   <![CDATA[
    .fil2 {fill:#360B4B}
    .fil1 {fill:#7ED63F}
    .fil0 {fill:#FE5022}
   ]]>
  </style>
 </defs>
 <g id="Layer_x0020_1">
  <metadata id="CorelCorpID_0Corel-Layer"/>
  <path class="fil0" d="M1752 825c-95,191 -203,488 -168,807l50 0c-13,-109 -22,-384 118,-807z"/>
  <path class="fil0" d="M1660 1678l-175 0 -1121 0c-12,0 -21,9 -21,21l0 58c0,12 9,21 21,21l1339 0c11,0 21,-9 21,-21 0,-86 9,-79 -64,-79z"/>
  <path class="fil1" d="M1465 1632c19,-116 49,-238 88,-363 2,-8 3,-16 5,-23 -51,103 -104,236 -136,386l43 0z"/>
  <path class="fil0" d="M1365 1632c-13,-109 -22,-384 119,-807 -96,191 -203,488 -169,807l50 0z"/>
  <path class="fil1" d="M1270 1632c-12,-107 -8,-220 10,-335 -12,-162 -42,-328 -90,-495 -4,23 -9,46 -13,68 74,403 61,663 51,762l42 0z"/>
  <path class="fil0" d="M1079 1632c-29,-288 23,-693 121,-1076 -97,253 -209,649 -171,1076l50 0z"/>
  <path class="fil1" d="M968 1632c38,-428 -74,-824 -171,-1076 130,506 140,882 121,1076l50 0z"/>
  <path class="fil0" d="M768 1632c35,-319 -73,-616 -168,-807 140,423 131,698 118,807l50 0z"/>
  <path class="fil1" d="M592 1632c-10,-81 -17,-257 40,-521 -5,-21 -10,-42 -16,-65 -69,203 -94,400 -74,586l50 0z"/>
  <path class="fil0" d="M483 1632c34,-319 -73,-616 -168,-807 140,423 131,698 118,807l50 0z"/>
  <path class="fil1" d="M686 901c8,-27 17,-54 26,-81 -11,21 -21,43 -32,67l6 14z"/>
  <path class="fil1" d="M1106 552c7,25 13,50 19,75l5 -13c-8,-21 -16,-42 -24,-62z"/>
  <path class="fil2" d="M1451 1645l-1120 0c-12,0 -22,9 -22,21l0 58c0,11 10,21 22,21l1338 0c12,0 22,-9 22,-21 0,-87 8,-79 -64,-79l-176 0zm54 -46c-4,-36 -6,-72 -7,-107 -7,36 -14,72 -20,107l27 0zm67 -568c92,-287 238,-484 240,-487 16,-21 50,-2 40,23 -237,567 -218,929 -206,1032l23 0c37,0 67,30 67,67l0 58c0,37 -30,66 -67,66l-1338 0c-37,0 -67,-29 -67,-66l0 -58c0,-37 30,-67 67,-67l23 0c12,-103 31,-465 -206,-1032 -10,-25 24,-44 40,-23 2,4 219,296 291,687 17,-97 45,-195 84,-295 -31,-111 -73,-234 -129,-369 -10,-25 23,-44 39,-23 2,2 74,100 148,256 42,-88 84,-157 114,-204 -27,-111 -60,-230 -101,-357 -8,-25 28,-41 41,-18 3,5 219,384 290,892 23,-160 60,-308 100,-435 -32,-142 -73,-290 -121,-439 -8,-25 28,-41 42,-18 3,5 66,115 135,296 69,-182 133,-293 134,-296 14,-23 50,-7 42,18 -51,159 -90,305 -120,438 47,149 81,298 100,444 88,-335 265,-573 267,-577 16,-21 49,-2 39,23 -180,431 -212,743 -212,913 57,-194 149,-369 201,-449zm28 568c-13,-109 -22,-384 119,-807 -96,191 -203,487 -169,807l50 0zm-268 0c-13,-109 -22,-384 118,-808 -95,192 -202,488 -168,808l50 0zm-175 -830c-5,23 -9,46 -13,68 74,403 61,663 51,762l41 0c-11,-108 -7,-220 11,-335 -12,-162 -42,-328 -90,-495zm-37 205c-50,333 -37,546 -28,625l57 0c9,-83 21,-295 -29,-625zm-74 625c-29,-288 22,-693 121,-1076 -97,252 -209,649 -171,1076l50 0zm-407 0c7,-57 16,-193 -17,-399 -34,204 -25,341 -18,399l35 0zm-41 -521c-4,-21 -9,-43 -15,-65 -70,203 -95,400 -75,586l51 0c-10,-82 -17,-257 39,-521zm82 -141c71,184 126,416 101,662l58 0c10,-99 28,-410 -81,-902 -30,81 -56,162 -78,240zm55 662c34,-320 -73,-616 -168,-808 140,424 131,699 118,808l50 0zm-285 0c34,-320 -73,-616 -169,-807 141,423 132,698 119,807l50 0zm485 0c38,-428 -74,-824 -172,-1077 131,507 141,883 121,1077l51 0zm138 -1081c6,26 13,51 19,76 1,-4 3,-9 4,-13 -8,-22 -16,-43 -23,-63zm-426 335c2,5 4,10 6,15 8,-27 17,-54 26,-81 -11,21 -22,43 -32,66zm741 746l44 0c19,-116 48,-238 88,-363 1,-8 3,-16 4,-24 -50,104 -103,237 -136,387z"/>
 </g>
</svg>
