<?xml version="1.0" encoding="UTF-8"?>
<!DOCTYPE svg PUBLIC "-//W3C//DTD SVG 1.1//EN" "http://www.w3.org/Graphics/SVG/1.1/DTD/svg11.dtd">
<!-- Creator: CorelDRAW -->
<svg xmlns="http://www.w3.org/2000/svg" xml:space="preserve" width="1.99999in" height="1.99999in" version="1.1" style="shape-rendering:geometricPrecision; text-rendering:geometricPrecision; image-rendering:optimizeQuality; fill-rule:evenodd; clip-rule:evenodd"
viewBox="0 0 2000 2000"
 xmlns:xlink="http://www.w3.org/1999/xlink">
 <defs>
  <style type="text/css">
   <![CDATA[
    .fil2 {fill:#360B4B}
    .fil1 {fill:#7ED63F}
    .fil0 {fill:#FE5022}
   ]]>
  </style>
 </defs>
 <g id="Layer_x0020_1">
  <metadata id="CorelCorpID_0Corel-Layer"/>
  <path class="fil0" d="M795 592c-21,-21 11,-53 33,-32l182 182c-4,-192 -15,-381 -110,-476 -52,-52 -135,-55 -187,-4 -42,43 -47,86 -19,168 6,18 -11,35 -29,29 -67,-24 -117,-31 -167,19 -51,50 -49,134 3,186 95,96 284,107 477,110l-183 -182z"/>
  <path class="fil1" d="M1239 560c21,-21 53,11 32,32l-182 182c192,-3 381,-14 476,-110 87,-86 22,-223 -79,-223 -62,0 -88,32 -108,12 -6,-6 -8,-15 -6,-23 29,-82 24,-125 -19,-168 -23,-23 -56,-37 -90,-37 -36,0 -70,15 -96,41 -95,95 -106,284 -110,476l182 -182z"/>
  <path class="fil0" d="M1565 931c-95,-95 -284,-106 -476,-109l182 182c22,21 -11,53 -32,32l-182 -182c4,192 15,381 110,476 52,52 135,55 186,3 43,-42 48,-85 19,-167 -6,-18 12,-35 29,-29 68,24 118,31 168,-19 51,-51 48,-135 -4,-187z"/>
  <path class="fil1" d="M900 1330c95,-95 106,-284 110,-476l-182 182c-5,4 -11,7 -17,7 -20,0 -30,-25 -16,-39l183 -183c-193,4 -382,15 -477,110 -87,87 -21,224 79,224 63,0 89,-33 109,-13 6,7 8,16 5,24 -28,82 -24,124 19,167 52,52 135,49 187,-3z"/>
  <path class="fil2" d="M778 1009c-20,0 -30,-24 -16,-39l182 -182c-192,4 -381,15 -476,110 -87,87 -21,224 79,224 63,0 88,-33 108,-13 7,6 9,15 6,24 -29,82 -24,124 19,167 51,51 135,48 186,-3 96,-95 107,-285 110,-477l-182 183c-4,4 -10,6 -16,6zm603 844c-3,0 -5,0 -8,-1 -264,-91 -377,-356 -395,-658 -33,97 -98,188 -208,188 -46,0 -90,-17 -122,-50 -53,-53 -58,-109 -43,-173 -67,17 -121,10 -173,-42 -68,-69 -66,-181 4,-251 54,-55 133,-85 223,-101 -410,-76 -293,-403 -112,-403 18,0 37,2 58,8 -16,-64 -10,-120 43,-173 69,-69 181,-66 251,3 54,55 84,133 101,224 24,-129 88,-277 230,-277 46,0 90,18 122,50 53,53 59,109 43,173 67,-17 121,-9 173,42 68,69 66,181 -4,251 -54,55 -133,85 -223,102 410,76 293,402 112,402 -18,0 -37,-2 -58,-8 15,64 10,120 -43,173 -69,69 -181,66 -251,-3 -34,-35 -59,-79 -77,-130 15,217 88,515 364,610 24,8 18,44 -7,44zm-151 -1661c-36,0 -70,14 -96,40 -96,96 -107,285 -110,477l182 -182c21,-22 53,11 32,32l-182 182c192,-4 381,-15 476,-110 87,-87 21,-224 -79,-224 -62,0 -89,33 -108,13 -7,-6 -9,-15 -6,-23 29,-83 24,-125 -19,-168 -24,-24 -56,-37 -90,-37zm-206 628c3,192 14,382 110,477 51,51 135,54 186,3 43,-43 48,-85 19,-167 -6,-18 11,-36 29,-29 68,23 118,30 167,-19 52,-52 49,-135 -3,-187 -95,-95 -284,-106 -476,-110l182 182c21,22 -11,54 -32,33l-182 -183zm-80 -79l-182 -182c-21,-21 11,-54 32,-32l182 182c-3,-192 -14,-381 -110,-477 -51,-51 -135,-54 -186,-3 -43,43 -48,85 -19,168 6,17 -11,35 -29,28 -68,-23 -118,-30 -167,20 -51,50 -49,134 3,186 95,95 284,106 476,110z"/>
 </g>
</svg>
