<?xml version="1.0" encoding="UTF-8"?>
<!DOCTYPE svg PUBLIC "-//W3C//DTD SVG 1.1//EN" "http://www.w3.org/Graphics/SVG/1.1/DTD/svg11.dtd">
<!-- Creator: CorelDRAW -->
<svg xmlns="http://www.w3.org/2000/svg" xml:space="preserve" width="1.99999in" height="1.99999in" version="1.1" style="shape-rendering:geometricPrecision; text-rendering:geometricPrecision; image-rendering:optimizeQuality; fill-rule:evenodd; clip-rule:evenodd"
viewBox="0 0 2000 2000"
 xmlns:xlink="http://www.w3.org/1999/xlink">
 <defs>
  <style type="text/css">
   <![CDATA[
    .fil1 {fill:#360B4B}
    .fil0 {fill:#FE5022}
   ]]>
  </style>
 </defs>
 <g id="Layer_x0020_1">
  <metadata id="CorelCorpID_0Corel-Layer"/>
  <path class="fil0" d="M1033 790l262 0c0,-107 -40,-175 -76,-216 -46,-54 -118,-90 -186,-90 -97,0 -172,45 -218,131l218 0c30,0 30,45 0,45l-238 0c-34,98 -24,185 -10,305l248 0c30,0 30,45 0,45l-242 0c11,91 25,198 42,305l200 0c30,0 30,45 0,45l-193 0c18,103 41,215 71,305l122 0c30,0 30,46 0,46l-106 0c91,231 186,142 260,-175l-154 0c-30,0 -30,-46 0,-46l164 0c21,-97 38,-204 52,-305l-216 0c-30,0 -30,-45 0,-45l222 0 36 -288c1,-6 1,-11 2,-17l-260 0c-30,0 -30,-45 0,-45z"/>
  <path class="fil1" d="M1154 1502l-154 0c-30,0 -30,-45 0,-45l164 0c21,-97 38,-204 52,-305l-216 0c-30,0 -30,-45 0,-45l222 0 36 -288c0,-6 1,-12 1,-17l-259 0c-30,0 -30,-46 0,-46l262 0c-1,-106 -40,-175 -76,-216 -47,-53 -119,-89 -186,-89l0 0c-97,0 -172,45 -218,130l218 0c30,0 30,46 0,46l-238 0c-34,98 -24,185 -10,304l248 0c30,0 30,46 0,46l-243 0c11,90 25,198 43,305l200 0c30,0 30,45 0,45l-193 0c18,103 41,214 71,305l122 0c30,0 30,45 0,45l-106 0c90,232 185,143 260,-175zm-177 -1236l0 -97c0,-30 46,-30 46,0l0 97c61,-103 160,-119 161,-119 30,-4 36,41 7,45 -7,1 -144,25 -166,215 74,8 144,45 195,103 61,69 91,163 87,268 -1,29 -11,103 -16,139l-28 219c-16,122 -35,240 -58,344 0,3 -1,6 -2,9 -48,213 -111,364 -205,364 -65,0 -115,-72 -156,-186 -2,-3 -3,-7 -3,-10 -32,-94 -58,-213 -80,-344 -10,-35 -45,-314 -55,-396l-5 -46c-24,-201 33,-313 85,-372 50,-56 117,-89 191,-93 -23,-190 -160,-213 -166,-214 -29,-4 -23,-49 7,-45 1,0 100,16 161,119z"/>
 </g>
</svg>
