<?xml version="1.0" encoding="UTF-8"?>
<!DOCTYPE svg PUBLIC "-//W3C//DTD SVG 1.1//EN" "http://www.w3.org/Graphics/SVG/1.1/DTD/svg11.dtd">
<!-- Creator: CorelDRAW -->
<svg xmlns="http://www.w3.org/2000/svg" xml:space="preserve" width="1.99999in" height="1.99999in" version="1.1" style="shape-rendering:geometricPrecision; text-rendering:geometricPrecision; image-rendering:optimizeQuality; fill-rule:evenodd; clip-rule:evenodd"
viewBox="0 0 2000 2000"
 xmlns:xlink="http://www.w3.org/1999/xlink">
 <defs>
  <style type="text/css">
   <![CDATA[
    .fil2 {fill:#360B4B}
    .fil1 {fill:#7ED63F}
    .fil0 {fill:#FE5022}
   ]]>
  </style>
 </defs>
 <g id="Layer_x0020_1">
  <metadata id="CorelCorpID_0Corel-Layer"/>
  <polygon class="fil0" points="1748,1753 318,1753 318,1841 1748,1841 "/>
  <polygon class="fil0" points="400,1708 1666,1708 1666,1620 1609,1620 400,1620 "/>
  <path class="fil0" d="M907 1574l253 0 0 -414c0,-70 -57,-127 -127,-127 -69,0 -126,57 -126,127l0 414z"/>
  <path class="fil1" d="M1356 766l0 808 230 0 0 -808 -230 0zm92 694l0 -580c0,-30 46,-30 46,0l0 580c0,13 -10,23 -23,23 -13,0 -23,-10 -23,-23z"/>
  <path class="fil1" d="M705 1574l0 -654 0 -154 -230 0 0 808 230 0zm-92 -694l0 580c0,13 -10,23 -23,23 -13,0 -23,-10 -23,-23l0 -580c0,-30 46,-30 46,0z"/>
  <path class="fil1" d="M458 720l1151 0c44,0 81,-36 81,-80l0 -114 -1313 0 0 114c0,44 36,80 81,80zm1063 -74l-975 0c-30,0 -30,-45 0,-45l975 0c30,0 30,45 0,45z"/>
  <polygon class="fil0" points="803,330 1267,330 1035,228 "/>
  <polygon class="fil0" points="1369,376 700,376 462,481 1605,481 "/>
  <path class="fil2" d="M1576 1587l-1209 0 0 87 1266 0 0 -87 -57 0zm-904 -700l0 -154 -231 0 0 808 231 0 0 -654zm45 -40l198 -114 -198 0 0 114zm283 -111l-283 163 0 642 111 0 0 -415c0,-95 77,-172 172,-172 95,0 172,77 172,172l0 415 105 0 0 -645 -277 -160zm85 -3l192 110 0 -110 -192 0zm402 -120l-974 0c-30,0 -30,-46 0,-46l974 0c30,0 30,46 0,46zm-49 837c-13,0 -23,-11 -23,-23l0 -580c0,-30 45,-30 45,0l0 580c0,12 -10,23 -22,23zm-881 0c-13,0 -23,-11 -23,-23l0 -580c0,-30 45,-30 45,0l0 580c0,12 -10,23 -22,23zm779 -1107l-670 0 -237 105 1143 0 -236 -105zm-567 -46l465 0 -232 -103 -233 103zm-471 174c0,-9 5,-18 14,-21l681 -301c6,-3 13,-3 18,0l339 150 342 153c6,4 10,10 10,18l0 136c0,62 -45,114 -104,124l0 811 58 0c12,0 23,10 23,23l0 110 59 0c12,0 22,11 22,23l0 134c0,12 -10,22 -22,22l-1476 0c-12,0 -22,-10 -22,-22l0 -134c0,-12 10,-23 22,-23l59 0 0 -110c0,-30 41,-23 75,-23l0 -812c-56,-13 -98,-63 -98,-123l0 -135zm829 1070l0 -415c0,-70 -57,-126 -127,-126 -70,0 -127,56 -127,126l0 415 254 0zm-783 -1048l0 113c0,45 36,81 80,81l1152 0c44,0 80,-36 80,-81l0 -113 -1312 0zm-59 1315l1430 0 0 -88 -1430 0 0 88zm1037 -267l231 0 0 -808 -231 0 0 808z"/>
 </g>
</svg>
